<?xml version="1.0" encoding="UTF-8"?>
<svg width="211.7mm" height="297.7mm" version="1.1" viewBox="0 0 211.7 297.7" xmlns="http://www.w3.org/2000/svg">
 <g transform="translate(-168.4 -170.8)">
  <path d="m245.1 467.6c-6.352-1.649-18.3-5.927-24.07-8.622-6.262-2.922-14.8-8.726-21.44-14.57-6.534-5.755-15.08-14.95-20.05-21.57-6.158-8.205-8.901-14.43-10.4-23.61-0.4854-2.963-0.5816-4.897-0.6944-13.96-0.2062-16.57 0.7606-24.11 4.555-35.53 5.59-16.83 14.38-30.52 44.98-70.1 7.784-10.07 10.45-13.7 14.04-19.18 8.97-13.67 16.18-28.55 21.28-43.92 4.094-12.34 6.492-23.73 7.932-37.7 0.6977-6.767 0.951-8.07 1.569-8.07 1.993 0 21.95 21.22 37.44 39.82 16.37 19.65 28.95 36.45 37.32 49.87 10.69 17.13 22.46 41.37 29.37 60.47 3.83 10.59 10.02 31.76 11.92 40.77 0.8419 3.995 1.298 11.57 1.305 21.67 4e-3 6.7-0.0537 7.699-0.607 10.45-2.935 14.6-8.371 27.68-14.61 35.19-9.801 11.78-25.74 24.19-41.66 32.44-6.405 3.318-10.89 4.899-17.89 6.311-3.476 0.7006-7.727 0.9098-8.044 0.3959-0.3097-0.5011 1.574-1.93 6.249-4.742 7.813-4.698 9.448-5.94 12.72-9.666 6.168-7.015 10.03-14.82 15.72-31.75 5.047-15.03 6.086-20.98 6.386-36.54 0.2136-11.07-0.1569-14-3.135-24.85-2.861-10.42-4.77-15.74-5.645-15.74-0.5194 0-0.8122 1.167-1.726 6.879-0.8668 5.42-2.366 10.96-4.002 14.79-1.637 3.833-4.872 10.49-6.195 12.74-1.342 2.289-2.037 3.031-2.628 2.804-0.568-0.218-0.5264-1.815 0.1803-6.92 1.366-9.868 0.4489-23.12-2.582-37.31-2.453-11.48-5.126-18.61-12.3-32.81-8.306-16.43-16.27-30.27-17.56-30.52-0.4543-0.0875-0.4805 0.0329-0.3164 1.453 0.0984 0.8516 0.7803 4.227 1.515 7.502 3.176 14.15 3.583 23.89 1.671 39.95-2.171 18.24-5.657 29.23-13.35 42.07-2.535 4.232-8.002 12.46-8.939 13.45-0.9459 1-1.602 1.014-2.093 0.0431-0.4314-0.8526-0.4188-2.772 0.0556-8.464 0.4995-5.994 0.4989-12.48-2e-3 -16.8-0.7409-6.394-2.813-16.55-4.371-21.43-1.588-4.97-6.013-12.75-9.319-16.39-2.105-2.316-2.18-2.165-1.892 3.797 0.3406 7.048 0.2489 9.209-0.5509 12.99-1.465 6.925-3.764 12.65-7.542 18.79-1.21 1.965-3.829 6.251-5.821 9.525s-4.691 7.62-5.999 9.657c-7.843 12.21-10.24 18.1-11.22 27.6-0.2011 1.935-0.263 5.592-0.1745 10.32 0.1171 6.256 0.2354 7.883 0.8129 11.18 1.527 8.729 4.524 18.21 7.865 24.89 2.649 5.293 4.336 8.042 5.858 9.543 1.689 1.666 6.853 5.176 13.93 9.464 4.873 2.955 6.492 4.126 6.249 4.519-0.2274 0.3679-0.7757 0.2916-4.088-0.5683z" fill="#575757" stroke-width=".2646"/>
 </g>
</svg>
