<?xml version="1.0" encoding="UTF-8"?>
<svg id="radioactive" width="615.9" height="540" version="1.0" xmlns="http://www.w3.org/2000/svg">
 <path d="m24.69-160.5c0.06787-0.0509 0 0.1697 0 0z" fill="none" stroke="#000" stroke-width="1px"/>
 <path d="m307.2 0.02289c-13.82 0.007582-22.12 13.38-27.22 24.53-92.81 161.4-186.8 322.2-278.9 484-5.656 16.18 10.6 34.34 27.31 31.03 189.6-0.2726 379.2 0.6243 568.8-0.4991 16.59-3.164 24.68-26.15 13.37-38.93-95.14-164.1-189.1-329-285-492.6-4.725-4.885-11.53-7.879-18.41-7.562z" fill="none"/>
 <path id="sign_border" d="m308 8.023c-5.7 0-11 3.1-13.9 8l-283.8 491.6c-2.9 5-2.9 11.1 0 16 2.9 5 8.2 8 13.9 8h567.6c5.7 0 11-3.1 13.9-8 2.9-5 2.9-11.1 0-16l-283.8-491.6c-2.9-5-8.198-8-13.9-8zm0 48.2 256 443.3h-512l256-443.3z"/>
 <path d="m288.1 173.6-50.51 171.9 73.88-38.09-15.81 115.7-15.1-22.06 11.64 72.56 42.36-61.18-21.45 13.34 44.54-164-79.65 43.87 58.3-132.2z" fill-rule="evenodd" stroke="#000" stroke-width="1.048px"/>
 <path d="m54.12 496.7c0.7077-1.116 58.05-100.4 127.4-220.5 99.67-172.6 126.4-218.3 127.2-217.4 1.164 1.252 253.8 438.7 253.8 439.5 0 0.2538-114.7 0.4614-254.9 0.4614h-254.9zm259.6-52.25c11.66-16.91 21.33-31.09 21.49-31.52 0.736-1.904-2.771-0.3378-11.41 5.097-6.215 3.91-9.142 5.329-8.813 4.274 2.425-7.787 43.71-161.2 43.46-161.4-0.1878-0.1878-17.7 9.222-38.91 20.91s-38.69 21.14-38.83 21c-0.1405-0.1405 12.51-29.2 28.11-64.57s28.36-64.68 28.36-65.13c0-1.315-48.43-1.064-49.32 0.2556-1.391 2.055-51.33 172.5-50.63 172.8 0.3886 0.1615 16.84-8.028 36.57-18.2 19.72-10.17 35.98-18.37 36.13-18.22 0.4747 0.4747-14.6 109.6-15.14 109.6-0.2856 0-3.453-4.261-7.038-9.47-6.026-8.754-9.086-11.74-8.086-7.891 0.2255 0.8681 2.992 17.71 6.148 37.43 3.156 19.72 5.961 35.83 6.234 35.8 0.2726-0.0246 10.03-13.88 21.69-30.79z" fill="none" style="paint-order:stroke fill markers"/>
 <path d="m54.12 496.7c0.7077-1.116 58.05-100.4 127.4-220.5 99.67-172.6 126.4-218.3 127.2-217.4 1.164 1.252 253.8 438.7 253.8 439.5 0 0.2538-114.7 0.4614-254.9 0.4614h-254.9zm259.6-52.25c11.66-16.91 21.33-31.09 21.49-31.52 0.736-1.904-2.771-0.3378-11.41 5.097-6.215 3.91-9.142 5.329-8.813 4.274 2.425-7.787 43.71-161.2 43.46-161.4-0.1878-0.1878-17.7 9.222-38.91 20.91s-38.69 21.14-38.83 21c-0.1405-0.1405 12.51-29.2 28.11-64.57s28.36-64.68 28.36-65.13c0-1.315-48.43-1.064-49.32 0.2556-1.391 2.055-51.33 172.5-50.63 172.8 0.3886 0.1615 16.84-8.028 36.57-18.2 19.72-10.17 35.98-18.37 36.13-18.22 0.4747 0.4747-14.6 109.6-15.14 109.6-0.2856 0-3.453-4.261-7.038-9.47-6.026-8.754-9.086-11.74-8.086-7.891 0.2255 0.8681 2.992 17.71 6.148 37.43 3.156 19.72 5.961 35.83 6.234 35.8 0.2726-0.0246 10.03-13.88 21.69-30.79z" fill="none" style="paint-order:stroke fill markers"/>
</svg>
