<?xml version="1.0" encoding="UTF-8"?>
<svg width="133.2mm" height="46.26mm" version="1.1" viewBox="0 0 133.2 46.26" xmlns="http://www.w3.org/2000/svg">
 <g fill="#fff">
  <g transform="matrix(.3528 0 0 -.3528 35.19 11.1)">
   <path d="m0 0c0.361 8.393-2.811 16.68-8.797 22.66-5.696 5.697-13.27 8.834-21.32 8.834-8.384 0-16.24-3.397-22.01-9.54-11.18-11.91-10.63-30.63 0.918-42.18l31.28-31.28c4.592-4.593 7.381-10.74 7.568-17.23 0.202-6.987-2.425-13.59-7.344-18.51-4.744-4.743-11.05-7.355-17.76-7.355s-13.01 2.612-17.76 7.355c-5.624 5.624-8.264 13.68-7.063 21.56l0.522 3.436-3.428-0.566c-1.351-0.224-2.699-0.337-4.007-0.337-6.525 0-12.66 2.541-17.27 7.154l-0.969 0.97c-9.539 9.539-9.539 25.01 0 34.55l14.46 14.46-3.569 3.568-14.46-14.46c-11.51-11.51-11.51-30.17 0-41.68l0.97-0.969c5.567-5.567 12.97-8.632 20.84-8.632 0.532 0 1.07 0.015 1.61 0.045-0.36-8.392 2.812-16.68 8.798-22.66 5.696-5.696 13.27-8.833 21.32-8.833 8.056 0 15.63 3.137 21.33 8.833 5.937 5.937 9.094 13.92 8.816 22.35-0.255 7.734-3.568 15.05-9.041 20.52l-31.28 31.28c-9.547 9.546-9.964 25.57-0.635 35.33 4.786 5.007 11.26 7.772 18.16 7.772 6.707 0 13.01-2.612 17.76-7.356 5.622-5.622 8.262-13.68 7.062-21.56l-0.523-3.436 3.429 0.566c1.35 0.224 2.699 0.337 4.007 0.338 6.525-1e-3 12.66-2.542 17.27-7.155l0.969-0.97c9.54-9.539 9.54-25.01 0-34.55l-14.46-14.46 3.568-3.569 14.46 14.47c11.51 11.51 11.51 30.17 0 41.68l-0.97 0.969c-5.566 5.567-12.97 8.633-20.84 8.633-0.533 0-1.07-0.015-1.611-0.046" fill="#fff"/>
  </g>
  <g transform="matrix(.3528 0 0 -.3528 28.39 21.8)">
   <path d="m0 0 10.41 10.41c0.05 0.049 0.098 0.1 0.145 0.152l0.336 0.337c2.906 2.906 6.862 4.381 11.01 4.071 3.405-0.254 6.58-1.81 8.994-4.224l0.817-0.817c5.473-5.473 5.473-14.38 0-19.86l-10.9-10.9zm20.82-27.96 14.46 14.46c7.442 7.441 7.442 19.55 0 26.99l-0.97 0.969c-3.866 3.867-9.099 5.87-14.61 5.559-4.755-0.268-9.215-2.391-12.58-5.759l-0.143-0.143c-0.042-0.042-0.082-0.084-0.122-0.127l-14-14z" fill="#fff"/>
  </g>
  <g transform="matrix(.3528 0 0 -.3528 24.49 17.9)">
   <path d="m0 0-10.23 10.23c-5.521 5.521-5.879 14.89-0.56 20.61 3.053 3.282 7.324 4.977 11.82 4.674 3.284-0.222 6.419-1.562 8.855-3.775 3.116-2.83 4.842-6.74 4.842-10.92 0-3.853-1.48-7.495-4.167-10.26zm14.16 7.029c4.067 4.174 6.08 9.847 5.517 15.74-0.387 4.041-2.036 7.887-4.694 10.96-3.822 4.414-9.214 6.869-14.98 6.869-5.568 0-10.78-2.286-14.58-6.415-7.194-7.828-6.725-20.01 0.793-27.53l13.78-13.78 14.15 14.15z" fill="#fff"/>
  </g>
  <g transform="matrix(.3528 0 0 -.3528 18.09 24.4)">
   <path d="m0 0-10.41-10.41c-0.05-0.05-0.098-0.1-0.145-0.151l-6e-3 -8e-3 -0.177-0.177c-2.414-2.413-5.589-3.969-8.992-4.224-4.153-0.31-8.109 1.165-11.02 4.072l-0.97 0.969c-5.473 5.473-5.473 14.38 0 19.86l10.9 10.9zm-35.28-13.5 0.773-0.772c3.366-3.366 7.827-5.487 12.58-5.755 5.509-0.31 10.74 1.693 14.61 5.558l0.345 0.344c0.04 0.041 0.08 0.084 0.12 0.126l14 14-27.96 27.96-14.46-14.46c-7.442-7.441-7.442-19.55 0-26.99" fill="#fff"/>
  </g>
  <g transform="matrix(.3528 0 0 -.3528 25.59 39.3)">
   <path d="m0 0c-3.071-3.071-7.26-4.619-11.65-4.262-3.037 0.245-5.941 1.449-8.261 3.42-3.359 2.852-5.227 6.909-5.227 11.25 0 3.853 1.48 7.495 4.167 10.26l10.56 10.56 10.41-10.41c5.741-5.741 5.741-15.08 0-20.82m-24.55 24.23-0.023-0.023c-3.617-3.713-5.61-8.611-5.61-13.79 0-5.281 2.057-10.25 5.791-13.98s8.699-5.791 13.98-5.791 10.25 2.057 13.98 5.791c7.709 7.709 7.709 20.25 1e-3 27.96l-13.98 13.98z" fill="#fff"/>
  </g>
  <g transform="matrix(.3528 0 0 -.3528 61.49 27.47)">
   <path d="m0 0c1.316 0.908 1.978 2.235 1.978 3.979 0 1.851-0.722 3.186-2.165 4.006-1.442 0.819-3.231 1.228-5.368 1.228h-5.179v-10.58h5.607c2.1 0 3.81 0.455 5.127 1.362m-10.73 15.2h5.394c1.779 0 3.123 0.516 4.031 1.548 0.909 1.033 1.363 2.332 1.363 3.9 0 1.708-0.544 2.99-1.629 3.845-1.086 0.855-2.591 1.281-4.513 1.281h-4.646zm17.28-5.715c1.227-1.568 1.841-3.384 1.841-5.448 0-3.774-1.273-6.578-3.818-8.413-2.546-1.833-5.688-2.749-9.426-2.749h-12.12v38.88h10.63c4.059 0 7.21-0.828 9.453-2.483 2.244-1.656 3.366-4.085 3.366-7.291 0-2.029-0.438-3.783-1.31-5.26-0.873-1.479-2.108-2.662-3.712-3.552 2.172-0.891 3.872-2.119 5.102-3.685" fill="#fff"/>
  </g>
  <g transform="matrix(.3528 0 0 -.3528 74.29 25.16)">
   <path d="m0 0-4.86 12.28-5.022-12.28zm2.082-5.342h-14.15l-3.739-9.132h-6.141l17.2 40.48h0.374l17.2-40.48h-7.156z" fill="#fff"/>
  </g>
  <g transform="matrix(.3528 0 0 -.3528 84.09 26.45)">
   <path d="m0 0c0.782-1.282 1.851-2.306 3.204-3.071 1.354-0.767 2.831-1.148 4.434-1.148 1.673 0 3.195 0.373 4.565 1.121 1.371 0.747 2.448 1.763 3.233 3.044 0.783 1.282 1.173 2.688 1.173 4.22v24.89h6.144v-25.05c0-2.778-0.668-5.244-2.004-7.398-1.335-2.154-3.16-3.836-5.474-5.047-2.315-1.211-4.861-1.816-7.637-1.816-2.778 0-5.315 0.605-7.612 1.816-2.296 1.211-4.103 2.893-5.421 5.047-1.317 2.154-1.976 4.62-1.976 7.398v25.05h6.196v-24.89c0-1.496 0.392-2.884 1.175-4.166" fill="#fff"/>
  </g>
  <g transform="matrix(.3528 0 0 -.3528 100.6 18.1)">
   <path d="m0 0c-1.924 0-3.446-0.428-4.567-1.282-1.121-0.855-1.683-2.03-1.683-3.525 0-1.461 0.704-2.679 2.11-3.659 1.406-0.979 3.373-1.949 5.902-2.91 1.923-0.677 3.569-1.453 4.94-2.323 1.37-0.873 2.502-2.056 3.392-3.553 0.889-1.495 1.335-3.383 1.335-5.661 0-2.066-0.516-3.934-1.549-5.608s-2.528-3.009-4.486-4.005c-1.958-0.998-4.273-1.496-6.943-1.496-2.35 0-4.666 0.366-6.943 1.094-2.279 0.731-4.31 1.737-6.089 3.018l2.777 4.861c1.317-0.997 2.874-1.825 4.673-2.483 1.797-0.659 3.463-0.989 4.993-0.989 1.889 0 3.543 0.454 4.967 1.362 1.425 0.908 2.138 2.305 2.138 4.193 0 1.495-0.598 2.741-1.789 3.738-1.195 0.997-2.858 1.905-4.994 2.725-2.209 0.818-4.041 1.628-5.501 2.43-1.461 0.8-2.715 1.922-3.766 3.365-1.05 1.442-1.576 3.248-1.576 5.42 0 3.168 1.077 5.723 3.231 7.664 2.156 1.94 4.993 2.982 8.52 3.124 2.563 0 4.815-0.293 6.756-0.88 1.939-0.588 3.747-1.416 5.421-2.484l-2.351-4.753c-3.347 1.743-6.319 2.617-8.918 2.617" fill="#fff"/>
  </g>
  <g transform="matrix(.3528 0 0 -.3528 110.7 22.23)">
   <path d="m0 0 0.854 1.229 14.63 15.65h8.012l-16.08-16.98 16.66-21.9h-7.904l-13.3 17.95-2.723-2.672v-15.27h-6.302v38.88h6.302v-14.9z" fill="#fff"/>
  </g>
  <g transform="matrix(.3528 0 0 -.3528 128.7 25.16)">
   <path d="m0 0-4.86 12.28-5.022-12.28zm2.082-5.342h-14.15l-3.739-9.132h-6.141l17.2 40.48h0.374l17.2-40.48h-7.156z" fill="#fff"/>
  </g>
 </g>
</svg>
