<?xml version="1.0" encoding="UTF-8"?>
<svg width="133.2mm" height="46.26mm" version="1.1" viewBox="0 0 133.2 46.26" xmlns="http://www.w3.org/2000/svg">
 <g transform="translate(-77.01 -222.5)" fill="#fff">
  <g transform="matrix(.3528 0 0 -.3528 112.2 233.6)">
   <path d="m0 0c0.361 8.393-2.811 16.68-8.797 22.66-5.696 5.697-13.27 8.834-21.32 8.834-8.384 0-16.24-3.397-22.01-9.54-11.18-11.91-10.63-30.63 0.918-42.18l11.96-11.96 19.32-19.32c4.592-4.593 7.381-10.74 7.568-17.23 0.202-6.987-2.425-13.59-7.344-18.51-4.744-4.743-11.05-7.355-17.76-7.355s-13.01 2.612-17.76 7.355c-5.624 5.624-8.264 13.68-7.063 21.56l0.522 3.436-3.428-0.566c-1.351-0.224-2.699-0.337-4.007-0.337-6.525 0-12.66 2.541-17.27 7.154l-0.969 0.97c-9.539 9.539-9.539 25.01 0 34.55l14.46 14.46-3.569 3.568-14.46-14.46c-11.51-11.51-11.51-30.17 0-41.68l0.97-0.969c5.567-5.567 12.97-8.632 20.84-8.632 0.532 0 1.07 0.015 1.61 0.045-0.36-8.392 2.812-16.68 8.798-22.66 5.696-5.696 13.27-8.833 21.32-8.833 8.056 0 15.63 3.137 21.33 8.833v0c5.937 5.937 9.094 13.92 8.816 22.35-0.255 7.734-3.568 15.05-9.041 20.52l-31.28 31.28c-9.547 9.546-9.964 25.57-0.635 35.33 4.786 5.007 11.26 7.772 18.16 7.772 6.707 0 13.01-2.612 17.76-7.356 5.622-5.622 8.262-13.68 7.062-21.56l-0.523-3.436 3.429 0.566c1.35 0.224 2.699 0.337 4.007 0.338 6.525-1e-3 12.66-2.542 17.27-7.155l0.969-0.97c9.54-9.539 9.54-25.01 0-34.55l-14.46-14.46 3.568-3.569 14.46 14.47c11.51 11.51 11.51 30.17 0 41.68l-0.97 0.969c-5.566 5.567-12.97 8.633-20.84 8.633-0.533 0-1.07-0.015-1.611-0.046" fill="#fff"/>
  </g>
  <g transform="matrix(.3528 0 0 -.3528 105.4 244.3)">
   <path d="m0 0 10.41 10.41c0.05 0.049 0.098 0.1 0.145 0.152l0.336 0.337c2.906 2.906 6.862 4.381 11.01 4.071 3.405-0.254 6.58-1.81 8.994-4.224l0.817-0.817c5.473-5.473 5.473-14.38 0-19.86l-10.9-10.9zm20.82-27.96 14.46 14.46c7.442 7.441 7.442 19.55 0 26.99l-0.97 0.969c-3.866 3.867-9.099 5.87-14.61 5.559-4.755-0.268-9.215-2.391-12.58-5.759l-0.143-0.143c-0.042-0.042-0.082-0.084-0.122-0.127l-14-14z" fill="#fff"/>
  </g>
  <g transform="matrix(.3528 0 0 -.3528 101.5 240.4)">
   <path d="m0 0-10.23 10.23c-5.521 5.521-5.879 14.89-0.56 20.61 3.053 3.282 7.324 4.977 11.82 4.674 3.284-0.222 6.419-1.562 8.855-3.775 3.116-2.83 4.842-6.74 4.842-10.92 0-3.853-1.48-7.495-4.167-10.26zm14.16 7.029c4.067 4.174 6.08 9.847 5.517 15.74-0.387 4.041-2.036 7.887-4.694 10.96-3.822 4.414-9.214 6.869-14.98 6.869-5.568 0-10.78-2.286-14.58-6.415-7.194-7.828-6.725-20.01 0.793-27.53l13.78-13.78 14.15 14.15z" fill="#fff"/>
  </g>
  <g transform="matrix(.3528 0 0 -.3528 95.1 246.9)">
   <path d="m0 0-10.41-10.41c-0.05-0.05-0.098-0.1-0.145-0.151l-6e-3 -8e-3 -0.177-0.177c-2.414-2.413-5.589-3.969-8.992-4.224-4.153-0.31-8.109 1.165-11.02 4.072l-0.97 0.969c-5.473 5.473-5.473 14.38 0 19.86l10.9 10.9zm-35.28-13.5 0.773-0.772c3.366-3.366 7.827-5.487 12.58-5.755 5.509-0.31 10.74 1.693 14.61 5.558l0.345 0.344c0.04 0.041 0.08 0.084 0.12 0.126l14 14-27.96 27.96-14.46-14.46c-7.442-7.441-7.442-19.55 0-26.99" fill="#fff"/>
  </g>
  <g transform="matrix(.3528 0 0 -.3528 102.6 261.8)">
   <path d="m0 0c-3.071-3.071-7.26-4.619-11.65-4.262-3.037 0.245-5.941 1.449-8.261 3.42-3.359 2.852-5.227 6.909-5.227 11.25 0 3.853 1.48 7.495 4.167 10.26l10.56 10.56 10.41-10.41c5.741-5.741 5.741-15.08 0-20.82m-24.55 24.23-0.023-0.023c-3.617-3.713-5.61-8.611-5.61-13.79 0-5.281 2.057-10.25 5.791-13.98s8.699-5.791 13.98-5.791 10.25 2.057 13.98 5.791c7.709 7.709 7.709 20.25 1e-3 27.96l-13.98 13.98z" fill="#fff"/>
  </g>
  <g transform="matrix(.3528 0 0 -.3528 138.5 245.4)">
   <path d="m0 0c1.316 0.908 1.978 2.235 1.978 3.979 0 1.851-0.722 3.186-2.165 4.006-1.442 0.819-3.231 1.228-5.368 1.228h-5.179v-10.58h5.607c2.1 0 3.81 0.455 5.127 1.362m-10.73 15.2h5.394c1.779 0 3.123 0.516 4.031 1.548 0.909 1.033 1.363 2.332 1.363 3.9 0 1.708-0.544 2.99-1.629 3.845-1.086 0.855-2.591 1.281-4.513 1.281h-4.646zm17.28-5.715c1.227-1.568 1.841-3.384 1.841-5.448 0-3.774-1.273-6.578-3.818-8.413-2.546-1.833-5.688-2.749-9.426-2.749h-12.12v38.88h10.63c4.059 0 7.21-0.828 9.453-2.483 2.244-1.656 3.366-4.085 3.366-7.291 0-2.029-0.438-3.783-1.31-5.26-0.873-1.479-2.108-2.662-3.712-3.552 2.172-0.891 3.872-2.119 5.102-3.685" fill="#fff"/>
  </g>
  <g transform="matrix(.3528 0 0 -.3528 151.3 242.8)">
   <path d="m0 0-4.86 12.28-5.022-12.28zm2.082-5.342h-14.15l-3.739-9.132h-6.141l17.2 40.48h0.374l17.2-40.48h-7.156z" fill="#fff"/>
  </g>
  <g transform="matrix(.3528 0 0 -.3528 161.1 244.4)">
   <path d="m0 0c0.782-1.282 1.851-2.306 3.204-3.071 1.354-0.767 2.831-1.148 4.434-1.148 1.673 0 3.195 0.373 4.565 1.121 1.371 0.747 2.448 1.763 3.233 3.044 0.783 1.282 1.173 2.688 1.173 4.22v24.89h6.144v-25.05c0-2.778-0.668-5.244-2.004-7.398-1.335-2.154-3.16-3.836-5.474-5.047-2.315-1.211-4.861-1.816-7.637-1.816-2.778 0-5.315 0.605-7.612 1.816-2.296 1.211-4.103 2.893-5.421 5.047-1.317 2.154-1.976 4.62-1.976 7.398v25.05h6.196v-24.89c0-1.496 0.392-2.884 1.175-4.166" fill="#fff"/>
  </g>
  <g transform="matrix(.3528 0 0 -.3528 177.6 236.1)">
   <path d="m0 0c-1.924 0-3.446-0.428-4.567-1.282-1.121-0.855-1.683-2.03-1.683-3.525 0-1.461 0.704-2.679 2.11-3.659 1.406-0.979 3.373-1.949 5.902-2.91 1.923-0.677 3.569-1.453 4.94-2.323 1.37-0.873 2.502-2.056 3.392-3.553 0.889-1.495 1.335-3.383 1.335-5.661 0-2.066-0.516-3.934-1.549-5.608s-2.528-3.009-4.486-4.005c-1.958-0.998-4.273-1.496-6.943-1.496-2.35 0-4.666 0.366-6.943 1.094-2.279 0.731-4.31 1.737-6.089 3.018l2.777 4.861c1.317-0.997 2.874-1.825 4.673-2.483 1.797-0.659 3.463-0.989 4.993-0.989 1.889 0 3.543 0.454 4.967 1.362 1.425 0.908 2.138 2.305 2.138 4.193 0 1.495-0.598 2.741-1.789 3.738-1.195 0.997-2.858 1.905-4.994 2.725-2.209 0.818-4.041 1.628-5.501 2.43-1.461 0.8-2.715 1.922-3.766 3.365-1.05 1.442-1.576 3.248-1.576 5.42 0 3.168 1.077 5.723 3.231 7.664 2.156 1.94 4.993 2.982 8.52 3.124 2.563 0 4.815-0.293 6.756-0.88 1.939-0.588 3.747-1.416 5.421-2.484l-2.351-4.753c-3.347 1.743-6.319 2.617-8.918 2.617" fill="#fff"/>
  </g>
  <g transform="matrix(.3528 0 0 -.3528 187.7 240.1)">
   <path d="m0 0 0.854 1.229 14.63 15.65h8.012l-16.08-16.98 16.66-21.9h-7.904l-13.3 17.95-2.723-2.672v-15.27h-6.302v38.88h6.302v-14.9z" fill="#fff"/>
  </g>
  <g transform="matrix(.3528 0 0 -.3528 205.7 242.8)">
   <path d="m0 0-4.86 12.28-5.022-12.28zm2.082-5.342h-14.15l-3.739-9.132h-6.141l17.2 40.48h0.374l17.2-40.48h-7.156z" fill="#fff"/>
  </g>
  <g transform="matrix(.3528 0 0 -.3528 133.3 255.4)">
   <path d="m0 0 0.281 0.447 6.952 7.233h2.936l-7.023-7.28 7.423-9.701h-2.889l-6.201 8.244-1.432-1.386 0.023-6.858h-2.325v16.98h2.325v-6.834z" fill="#fff"/>
  </g>
  <g transform="matrix(.3528 0 0 -.3528 141.6 255.3)">
   <path d="m0 0v-9.723h-1.973l-0.14 1.856c-0.329-0.658-0.838-1.195-1.528-1.609-0.688-0.415-1.456-0.623-2.3-0.623-0.894 0-1.625 0.27-2.197 0.81-0.572 0.541-0.873 1.241-0.904 2.103v7.186h2.185v-6.411c0.031-0.549 0.191-0.983 0.48-1.304 0.291-0.321 0.725-0.489 1.304-0.505 0.532 0 1.018 0.161 1.457 0.482 0.437 0.321 0.787 0.763 1.044 1.327 0.259 0.563 0.388 1.189 0.388 1.879v4.532z" fill="#fff"/>
  </g>
  <g transform="matrix(.3528 0 0 -.3528 144.4 255.6)">
   <path d="m0 0c0.462 0.408 0.951 0.721 1.468 0.94s0.97 0.337 1.362 0.352l-0.094-2.184c-0.705 0.031-1.342-0.11-1.914-0.422-0.571-0.314-1.017-0.748-1.339-1.304-0.321-0.556-0.481-1.147-0.481-1.773v-4.439h-2.184v9.723h1.949l0.165-2.302c0.25 0.532 0.606 1.003 1.068 1.409" fill="#fff"/>
  </g>
  <g transform="matrix(.3528 0 0 -.3528 150.1 258.7)">
   <path d="m0 0c-0.649 0.25-1.178 0.619-1.585 1.104l0.939 1.269c0.391-0.376 0.802-0.666 1.234-0.87 0.431-0.203 0.856-0.305 1.28-0.305 0.516 0 0.94 0.102 1.268 0.305 0.329 0.204 0.493 0.517 0.493 0.941 0 0.328-0.102 0.594-0.306 0.797-0.203 0.204-0.433 0.353-0.692 0.447-0.258 0.094-0.694 0.234-1.304 0.423-1.659 0.532-2.489 1.479-2.489 2.841 0 0.815 0.302 1.511 0.904 2.09 0.603 0.58 1.445 0.87 2.525 0.87 0.689 0 1.299-0.087 1.832-0.258 0.532-0.173 1.025-0.447 1.479-0.823l-0.869-1.338c-0.25 0.266-0.566 0.476-0.95 0.633s-0.748 0.243-1.093 0.259c-0.438 0-0.813-0.105-1.127-0.317-0.313-0.212-0.471-0.497-0.471-0.857 0-0.298 0.103-0.544 0.306-0.739 0.204-0.197 0.415-0.337 0.634-0.424 0.22-0.086 0.65-0.231 1.293-0.434 0.798-0.266 1.42-0.61 1.866-1.034 0.446-0.422 0.67-0.995 0.67-1.715 0-0.938-0.329-1.714-0.986-2.325-0.659-0.611-1.59-0.916-2.795-0.916-0.721 0-1.407 0.126-2.056 0.376" fill="#fff"/>
  </g>
  <g transform="matrix(.3528 0 0 -.3528 156 257.9)">
   <path d="m0 0c0.57 0.447 0.935 1.053 1.092 1.821v1.926c-0.188 0.689-0.579 1.248-1.174 1.678-0.596 0.431-1.276 0.647-2.044 0.647-0.58 0-1.115-0.141-1.609-0.423s-0.884-0.677-1.174-1.186c-0.289-0.509-0.435-1.084-0.435-1.726 0-0.627 0.149-1.198 0.447-1.716 0.297-0.515 0.696-0.927 1.197-1.232s1.049-0.458 1.644-0.458c0.799 0 1.484 0.223 2.056 0.669m3.276 7.481v-9.723h-2.184v1.596c-0.345-0.453-0.846-0.872-1.503-1.256-0.658-0.383-1.402-0.575-2.233-0.575-0.922 0-1.756 0.199-2.5 0.598-0.744 0.4-1.332 0.983-1.761 1.75-0.431 0.768-0.647 1.683-0.647 2.748s0.224 1.993 0.67 2.783c0.446 0.791 1.049 1.401 1.809 1.833 0.76 0.43 1.6 0.645 2.524 0.645 0.83 0 1.55-0.181 2.16-0.54 0.612-0.36 1.105-0.83 1.481-1.409l0.164 1.55z" fill="#fff"/>
  </g>
  <g transform="matrix(.3528 0 0 -.3528 160.1 253.8)">
   <path d="m0 0v-4.298h2.654v-1.738h-2.654v-7.962h-2.207v7.962h-1.785v1.738h1.785v4.298z" fill="#fff"/>
  </g>
  <path d="m163.1 258.7h-0.7708v-3.43h0.7708zm-0.6879-4.971c0.0935-0.0825 0.2014-0.1245 0.3232-0.1245 0.1214 0 0.2275 0.042 0.3189 0.1245 0.091 0.0829 0.1365 0.1849 0.1365 0.3062 0 0.1221-0.0455 0.224-0.1365 0.3069-0.0914 0.0829-0.1976 0.1242-0.3189 0.1242-0.1217 0-0.2297-0.0413-0.3232-0.1242-0.0942-0.0829-0.1411-0.1849-0.1411-0.3069 0-0.1214 0.0469-0.2233 0.1411-0.3062"/>
  <g transform="matrix(.3528 0 0 -.3528 165.6 256.1)">
   <path d="m0 0c-0.58-0.626-0.87-1.426-0.87-2.396 0-0.235 8e-3 -0.415 0.023-0.54l5.66 2.091c-0.234 0.531-0.567 0.962-0.998 1.291-0.429 0.328-0.966 0.493-1.608 0.493-0.893 0-1.629-0.313-2.207-0.939m4.744-4.956 1.009-1.621c-0.516-0.345-1.076-0.614-1.679-0.81-0.603-0.195-1.186-0.293-1.75-0.293-1.08 0-2.023 0.222-2.83 0.669-0.806 0.446-1.429 1.061-1.866 1.843-0.44 0.783-0.658 1.668-0.658 2.655 0 0.955 0.238 1.827 0.716 2.619 0.477 0.79 1.13 1.416 1.96 1.879 0.831 0.461 1.739 0.692 2.726 0.692 1.268 0 2.328-0.372 3.182-1.116 0.852-0.743 1.436-1.781 1.75-3.112l-7.704-2.7c0.282-0.486 0.662-0.866 1.139-1.139 0.477-0.275 1.022-0.411 1.633-0.411 0.813 0 1.605 0.281 2.372 0.845" fill="#fff"/>
  </g>
  <g transform="matrix(.3528 0 0 -.3528 170.8 257.1)">
   <path d="m0 0-1.268-1.034v-3.64h-2.184v18.2h2.184v-12.28l5.026 4.039 1.339-1.173-3.594-2.89 4.063-5.895h-2.56z" fill="#fff"/>
  </g>
  <g transform="matrix(.3528 0 0 -.3528 176.5 257.9)">
   <path d="m0 0c0.571 0.447 0.936 1.053 1.092 1.821v1.926c-0.188 0.689-0.579 1.248-1.174 1.678-0.596 0.431-1.276 0.647-2.044 0.647-0.579 0-1.115-0.141-1.609-0.423s-0.884-0.677-1.174-1.186c-0.289-0.509-0.434-1.084-0.434-1.726 0-0.627 0.148-1.198 0.447-1.716 0.296-0.515 0.695-0.927 1.197-1.232 0.501-0.305 1.049-0.458 1.643-0.458 0.799 0 1.485 0.223 2.056 0.669m3.276 7.481v-9.723h-2.184v1.596c-0.345-0.453-0.846-0.872-1.503-1.256-0.658-0.383-1.401-0.575-2.232-0.575-0.923 0-1.757 0.199-2.501 0.598-0.744 0.4-1.331 0.983-1.761 1.75-0.431 0.768-0.646 1.683-0.646 2.748s0.223 1.993 0.669 2.783c0.446 0.791 1.049 1.401 1.809 1.833 0.76 0.43 1.601 0.645 2.524 0.645 0.83 0 1.551-0.181 2.161-0.54 0.612-0.36 1.105-0.83 1.48-1.409l0.164 1.55z" fill="#fff"/>
  </g>
  <g transform="matrix(.3528 0 0 -.3528 179.6 258.7)">
   <path d="m0 0c-0.65 0.25-1.179 0.619-1.586 1.104l0.94 1.269c0.39-0.376 0.801-0.666 1.233-0.87 0.431-0.203 0.856-0.305 1.28-0.305 0.516 0 0.94 0.102 1.268 0.305 0.329 0.204 0.493 0.517 0.493 0.941 0 0.328-0.102 0.594-0.306 0.797-0.203 0.204-0.433 0.353-0.692 0.447-0.258 0.094-0.693 0.234-1.304 0.423-1.659 0.532-2.489 1.479-2.489 2.841 0 0.815 0.302 1.511 0.904 2.09 0.603 0.58 1.445 0.87 2.525 0.87 0.689 0 1.299-0.087 1.832-0.258 0.532-0.173 1.025-0.447 1.479-0.823l-0.868-1.338c-0.251 0.266-0.567 0.476-0.951 0.633s-0.748 0.243-1.093 0.259c-0.438 0-0.813-0.105-1.127-0.317-0.313-0.212-0.471-0.497-0.471-0.857 0-0.298 0.103-0.544 0.306-0.739 0.204-0.197 0.415-0.337 0.635-0.424 0.219-0.086 0.649-0.231 1.292-0.434 0.798-0.266 1.42-0.61 1.866-1.034 0.446-0.422 0.67-0.995 0.67-1.715 0-0.938-0.329-1.714-0.986-2.325-0.659-0.611-1.59-0.916-2.795-0.916-0.721 0-1.407 0.126-2.055 0.376" fill="#fff"/>
  </g>
 </g>
</svg>
