<?xml version="1.0" encoding="UTF-8"?>
<svg width="110.2mm" height="117mm" version="1.1" viewBox="0 0 110.2 117" xmlns="http://www.w3.org/2000/svg">
 <g transform="translate(105.7 -90.33)">
  <path d="m-105.7 207.3h110.2v-117h-110.2z" fill="#202945"/>
  <g transform="matrix(.3528 0 0 -.3528 -646.2 244.1)">
   <g transform="translate(1736 350.9)">
    <path d="m0 0c0.516 11.98-4.012 23.8-12.56 32.34-8.129 8.13-18.94 12.61-30.43 12.61-11.96 1e-3 -23.18-4.847-31.41-13.62-15.95-16.99-15.17-43.71 1.311-60.19l44.63-44.63c6.554-6.554 10.53-15.33 10.8-24.59 0.289-9.971-3.461-19.39-10.48-26.41-6.769-6.769-15.77-10.5-25.34-10.5-9.572 0-18.57 3.727-25.34 10.5-8.024 8.025-11.79 19.53-10.08 30.77l0.746 4.904-4.893-0.808c-1.928-0.32-3.852-0.481-5.719-0.481-9.312 0-18.07 3.626-24.65 10.21l-1.384 1.383c-13.61 13.61-13.61 35.69 0 49.3l20.64 20.64-5.092 5.092-20.64-20.64c-16.43-16.43-16.43-43.06 0-59.48l1.384-1.384c7.943-7.945 18.51-12.32 29.74-12.32 0.76 0 1.528 0.022 2.299 0.064-0.515-11.98 4.012-23.8 12.56-32.34 8.129-8.129 18.94-12.61 30.43-12.61s22.3 4.477 30.44 12.61c0 1e-3 -1e-3 0 0 0 8.472 8.473 12.98 19.86 12.58 31.9-0.364 11.04-5.093 21.48-12.9 29.29l-27.57 27.57-17.08 17.07c-13.62 13.62-14.22 36.49-0.905 50.42 6.83 7.145 16.07 11.09 25.92 11.09 9.572 0 18.57-3.728 25.34-10.5 8.024-8.024 11.79-19.53 10.08-30.77l-0.747-4.903 4.893 0.808c1.927 0.32 3.852 0.481 5.719 0.481 9.312 0 18.07-3.626 24.65-10.21l1.384-1.383c13.61-13.61 13.61-35.69 0-49.3l-20.64-20.64 5.093-5.093 20.64 20.64c16.43 16.43 16.43 43.06 0 59.48l-1.385 1.384c-7.943 7.944-18.51 12.32-29.74 12.32-0.76 0-1.528-0.022-2.299-0.066" fill="#fff"/>
   </g>
   <g transform="translate(1709 307.5)">
    <path d="m0 0 14.86 14.86c0.073 0.071 0.14 0.143 0.207 0.217l0.48 0.481c4.147 4.148 9.793 6.253 15.72 5.81 4.857-0.363 9.39-2.583 12.84-6.028l1.166-1.166c7.811-7.812 7.811-20.52 0-28.34l-15.55-15.55zm29.71-39.9 20.64 20.64c10.62 10.62 10.62 27.9 0 38.52l-1.383 1.382c-5.518 5.519-12.99 8.377-20.85 7.934-6.785-0.383-13.15-3.413-17.95-8.219l-0.204-0.204c-0.06-0.06-0.116-0.121-0.174-0.182l-19.98-19.98z" fill="#fff"/>
   </g>
   <g transform="translate(1693 323.1)">
    <path d="m0 0-14.6 14.6c-7.88 7.88-8.39 21.25-0.799 29.41 4.356 4.683 10.45 7.102 16.87 6.669 4.685-0.317 9.16-2.228 12.64-5.387 4.446-4.039 6.909-9.619 6.909-15.58 0-5.499-2.112-10.7-5.947-14.64zm20.22 10.03c5.805 5.957 8.677 14.05 7.872 22.46-0.552 5.768-2.904 11.26-6.697 15.64-5.456 6.3-13.15 9.803-21.38 9.803-7.947 0-15.39-3.263-20.8-9.155-10.26-11.17-9.597-28.56 1.132-39.29l19.67-19.67 20.2 20.2z" fill="#fff"/>
   </g>
   <g transform="translate(1667 297.1)">
    <path d="m0 0-14.86-14.86c-0.071-0.071-0.138-0.142-0.205-0.215l-0.01-0.012-0.253-0.253c-3.444-3.443-7.976-5.664-12.83-6.028-5.925-0.443-11.57 1.662-15.72 5.812l-1.383 1.382c-7.811 7.812-7.811 20.52 0 28.34l15.55 15.55zm-50.36-19.26 1.104-1.103c4.804-4.804 11.17-7.831 17.95-8.213 7.862-0.442 15.33 2.417 20.84 7.933l0.491 0.489c0.058 0.059 0.114 0.12 0.172 0.181l19.98 19.98-39.9 39.9-20.64-20.64c-10.62-10.62-10.62-27.9 0-38.52" fill="#fff"/>
   </g>
   <g transform="translate(1698 236.9)">
    <path d="m0 0c-4.383-4.383-10.36-6.591-16.62-6.083-4.333 0.351-8.478 2.068-11.79 4.882-4.792 4.07-7.459 9.86-7.459 16.06 0 5.499 2.11 10.7 5.946 14.64l15.07 15.07 14.85-14.85c8.193-8.193 8.193-21.52 0-29.72m-35.04 34.58-0.033-0.033c-5.163-5.299-8.006-12.29-8.006-19.68 0-7.536 2.934-14.62 8.263-19.95 5.33-5.33 12.42-8.264 19.95-8.264s14.62 2.934 19.95 8.264c11 11 11 28.9 1e-3 39.9l-19.95 19.94z" fill="#fff"/>
   </g>
   <g transform="translate(1598 151.4)">
    <path d="m0 0c1.271 0.876 1.907 2.156 1.907 3.838 0 1.785-0.696 3.073-2.087 3.865-1.391 0.789-3.117 1.184-5.178 1.184h-4.996v-10.2h5.409c2.025 0 3.674 0.439 4.945 1.314m-10.35 14.66h5.203c1.716 0 3.012 0.498 3.889 1.493 0.876 0.996 1.314 2.25 1.314 3.763 0 1.647-0.525 2.883-1.572 3.708s-2.499 1.236-4.353 1.236h-4.481zm16.67-5.512c1.184-1.513 1.776-3.264 1.776-5.256 0-3.64-1.228-6.345-3.682-8.115-2.457-1.768-5.488-2.652-9.093-2.652h-11.7v37.51h10.25c3.915 0 6.955-0.799 9.118-2.396 2.164-1.597 3.246-3.941 3.246-7.032 0-1.958-0.421-3.65-1.262-5.075-0.842-1.426-2.034-2.567-3.58-3.426 2.094-0.859 3.734-2.044 4.92-3.554" fill="#fff"/>
   </g>
   <g transform="translate(1633 158.5)">
    <path d="m0 0-4.687 11.85-4.844-11.85zm2.01-5.152h-13.65l-3.607-8.81h-5.924l16.59 39.05h0.36l16.59-39.05h-6.902z" fill="#fff"/>
   </g>
   <g transform="translate(1660 154)">
    <path d="m0 0c0.755-1.237 1.785-2.225 3.091-2.962 1.305-0.741 2.73-1.108 4.277-1.108 1.612 0 3.081 0.36 4.403 1.082 1.323 0.72 2.362 1.7 3.119 2.935 0.755 1.237 1.132 2.594 1.132 4.072v24.01h5.925v-24.16c0-2.68-0.644-5.058-1.932-7.136s-3.048-3.701-5.281-4.869-4.688-1.751-7.366-1.751c-2.68 0-5.127 0.583-7.343 1.751-2.214 1.168-3.959 2.791-5.229 4.869-1.271 2.078-1.906 4.456-1.906 7.136v24.16h5.977v-24.01c0-1.444 0.377-2.783 1.133-4.019" fill="#fff"/>
   </g>
   <g transform="translate(1705 176.9)">
    <path d="m0 0c-1.855 0-3.324-0.413-4.406-1.237-1.081-0.825-1.623-1.958-1.623-3.4 0-1.409 0.679-2.585 2.036-3.53 1.355-0.944 3.254-1.879 5.692-2.807 1.855-0.652 3.444-1.401 4.766-2.241 1.321-0.842 2.413-1.983 3.271-3.427 0.86-1.442 1.288-3.263 1.288-5.461 0-1.992-0.498-3.794-1.494-5.409-0.996-1.614-2.438-2.903-4.328-3.864-1.889-0.962-4.12-1.442-6.696-1.442-2.268 0-4.5 0.352-6.698 1.055-2.199 0.705-4.158 1.675-5.873 2.911l2.679 4.689c1.27-0.962 2.773-1.76 4.508-2.395 1.732-0.636 3.34-0.954 4.816-0.954 1.822 0 3.417 0.438 4.791 1.313 1.375 0.877 2.062 2.224 2.062 4.046 0 1.442-0.576 2.644-1.726 3.606-1.152 0.961-2.756 1.837-4.817 2.627-2.131 0.79-3.898 1.571-5.307 2.345-1.409 0.771-2.619 1.853-3.632 3.245s-1.52 3.133-1.52 5.229c0 3.056 1.038 5.52 3.117 7.393 2.078 1.872 4.817 2.876 8.218 3.014 2.473 0 4.645-0.284 6.518-0.85 1.87-0.567 3.614-1.365 5.228-2.396l-2.267-4.585c-3.229 1.682-6.097 2.525-8.603 2.525" fill="#fff"/>
   </g>
   <g transform="translate(1733 165.8)">
    <path d="m0 0 0.824 1.185 14.12 15.1h7.729l-15.51-16.38 16.07-21.12h-7.624l-12.83 17.31-2.626-2.577v-14.73h-6.079v37.51h6.079v-14.37z" fill="#fff"/>
   </g>
   <g transform="translate(1782 158.5)">
    <path d="m0 0-4.688 11.85-4.844-11.85zm2.009-5.152h-13.65l-3.607-8.81h-5.924l16.59 39.05h0.36l16.59-39.05h-6.902z" fill="#fff"/>
   </g>
  </g>
 </g>
</svg>
